<svg id="undraw_hello_re_3evm" xmlns="http://www.w3.org/2000/svg" width="979.327" height="424.837" viewBox="0 0 979.327 424.837">
  <path id="Path_1" data-name="Path 1" d="M993.718,412.839H419.142a9.2,9.2,0,0,0,0,18.4h16.275V651.3a9.2,9.2,0,0,0,18.4,0l.14-220.065H915.11L957.63,651.3a9.2,9.2,0,0,0,18.4,0L978.7,431.237h15.014a9.2,9.2,0,0,0,0-18.4Z" transform="translate(-110.337 -237.582)" fill="#ccc"/>
  <path id="Path_2" data-name="Path 2" d="M518.737,371.85v38.955h-97.6a19.489,19.489,0,0,1-1.355-38.955q.677-.024,1.355,0Z" transform="translate(-110.337 -237.582)" fill="#f2f2f2"/>
  <path id="Path_3" data-name="Path 3" d="M521.134,410.506a1.5,1.5,0,0,1-1.5,1.5H419.4a20.526,20.526,0,1,1,0-41.052H519.636a1.5,1.5,0,1,1,0,3H419.4a17.53,17.53,0,1,0,0,35.059H519.636a1.5,1.5,0,0,1,1.5,1.5Z" transform="translate(-110.337 -237.582)" fill="#6c63ff"/>
  <path id="Path_4" data-name="Path 4" d="M518.737,380.84H413.859a.3.3,0,0,1-.006-.6H518.737a.3.3,0,1,1,0,.6Z" transform="translate(-110.337 -237.582)" fill="#ccc"/>
  <path id="Path_5" data-name="Path 5" d="M518.737,388.032H413.859a.3.3,0,1,1-.006-.6H518.737a.3.3,0,1,1,0,.6Z" transform="translate(-110.337 -237.582)" fill="#ccc"/>
  <path id="Path_6" data-name="Path 6" d="M518.737,395.223H413.859a.3.3,0,0,1-.006-.6H518.737a.3.3,0,1,1,0,.6Z" transform="translate(-110.337 -237.582)" fill="#ccc"/>
  <path id="Path_7" data-name="Path 7" d="M518.737,402.415H413.859a.3.3,0,1,1-.006-.6H518.737a.3.3,0,1,1,0,.6Z" transform="translate(-110.337 -237.582)" fill="#ccc"/>
  <path id="Path_8" data-name="Path 8" d="M500.339,330.809v38.955h-97.6a19.489,19.489,0,0,1-1.355-38.955q.677-.024,1.355,0Z" transform="translate(-110.337 -237.582)" fill="#f2f2f2"/>
  <path id="Path_9" data-name="Path 9" d="M502.737,369.464a1.5,1.5,0,0,1-1.5,1.5H401.005a20.526,20.526,0,1,1,0-41.052H501.238a1.5,1.5,0,0,1,0,3H401.005a17.53,17.53,0,0,0,0,35.059H501.238a1.5,1.5,0,0,1,1.5,1.5Z" transform="translate(-110.337 -237.582)" fill="#3f3d56"/>
  <path id="Path_10" data-name="Path 10" d="M500.339,339.8H395.461a.3.3,0,1,1-.006-.6H500.339a.3.3,0,1,1,0,.6Z" transform="translate(-110.337 -237.582)" fill="#ccc"/>
  <path id="Path_11" data-name="Path 11" d="M500.339,346.991H395.461a.3.3,0,1,1-.006-.6H500.339a.3.3,0,0,1,0,.6Z" transform="translate(-110.337 -237.582)" fill="#ccc"/>
  <path id="Path_12" data-name="Path 12" d="M500.339,354.182H395.461a.3.3,0,1,1-.006-.6H500.339a.3.3,0,1,1,0,.6Z" transform="translate(-110.337 -237.582)" fill="#ccc"/>
  <path id="Path_13" data-name="Path 13" d="M500.339,361.374H395.461a.3.3,0,1,1-.006-.6H500.339a.3.3,0,0,1,0,.6Z" transform="translate(-110.337 -237.582)" fill="#ccc"/>
  <path id="Path_14" data-name="Path 14" d="M613.874,550.683V516.718a5.661,5.661,0,0,0-5.661-5.661H479.428a5.661,5.661,0,0,0-5.661,5.661v33.965Z" transform="translate(-110.337 -237.582)" fill="#ccc"/>
  <rect id="Rectangle_1" data-name="Rectangle 1" width="140.106" height="43.872" transform="translate(363.431 325.839)" fill="#ccc"/>
  <path id="Path_15" data-name="Path 15" d="M473.768,620.029v33.965a5.661,5.661,0,0,0,5.661,5.661H608.213a5.661,5.661,0,0,0,5.661-5.661V620.029Z" transform="translate(-110.337 -237.582)" fill="#ccc"/>
  <circle id="Ellipse_1" data-name="Ellipse 1" cx="4.246" cy="4.246" r="4.246" transform="translate(428.531 290.458)" fill="#fff"/>
  <circle id="Ellipse_2" data-name="Ellipse 2" cx="4.246" cy="4.246" r="4.246" transform="translate(428.531 347.067)" fill="#fff"/>
  <circle id="Ellipse_3" data-name="Ellipse 3" cx="4.246" cy="4.246" r="4.246" transform="translate(428.758 402.477)" fill="#fff"/>
  <path id="Path_16" data-name="Path 16" d="M597.989,472.331v38.955h-97.6a19.489,19.489,0,0,1-1.356-38.955q.678-.024,1.356,0Z" transform="translate(-110.337 -237.582)" fill="#f2f2f2"/>
  <path id="Path_17" data-name="Path 17" d="M600.386,510.986a1.5,1.5,0,0,1-1.5,1.5H498.655a20.526,20.526,0,1,1-.025-41.052H598.888a1.5,1.5,0,1,1,0,3H498.655a17.53,17.53,0,1,0,0,35.059H598.888a1.5,1.5,0,0,1,1.5,1.5Z" transform="translate(-110.337 -237.582)" fill="#3f3d56"/>
  <path id="Path_18" data-name="Path 18" d="M597.989,481.32H493.111a.3.3,0,1,1-.006-.6H597.989a.3.3,0,1,1,0,.6Z" transform="translate(-110.337 -237.582)" fill="#ccc"/>
  <path id="Path_19" data-name="Path 19" d="M597.989,488.512H493.111a.3.3,0,1,1-.006-.6H597.989a.3.3,0,1,1,0,.6Z" transform="translate(-110.337 -237.582)" fill="#ccc"/>
  <path id="Path_20" data-name="Path 20" d="M597.989,495.7H493.111a.3.3,0,1,1-.006-.6H597.989a.3.3,0,1,1,0,.6Z" transform="translate(-110.337 -237.582)" fill="#ccc"/>
  <path id="Path_21" data-name="Path 21" d="M597.989,502.895H493.111a.3.3,0,1,1-.006-.6H597.989a.3.3,0,1,1,0,.6Z" transform="translate(-110.337 -237.582)" fill="#ccc"/>
  <path id="Path_22" data-name="Path 22" d="M483.367,317.814H438.9a2.748,2.748,0,0,0-1.217.283l-11.223,5.618a2.045,2.045,0,0,0,0,3.764l11.223,5.618a2.747,2.747,0,0,0,1.217.283h44.466a2.334,2.334,0,0,0,2.463-2.165V319.979a2.334,2.334,0,0,0-2.463-2.165Z" transform="translate(-110.337 -237.582)" fill="#3f3d56"/>
  <path id="Path_23" data-name="Path 23" d="M485.83,319.979v11.237a2.334,2.334,0,0,1-2.463,2.165h-8.859V317.814h8.859A2.334,2.334,0,0,1,485.83,319.979Z" transform="translate(-110.337 -237.582)" fill="#6c63ff"/>
  <path id="Path_24" data-name="Path 24" d="M216.781,537.993a35.34,35.34,0,0,0,34.126-6.011c11.953-10.032,15.7-26.56,18.749-41.864l9.019-45.266-18.882,13c-13.579,9.35-27.464,19-36.866,32.542s-13.506,32.03-5.952,46.684" transform="translate(-110.337 -237.582)" fill="#e6e6e6"/>
  <path id="Path_25" data-name="Path 25" d="M218.395,592.8c-1.911-13.921-3.876-28.02-2.536-42.09,1.191-12.5,5-24.7,12.764-34.707a57.736,57.736,0,0,1,14.813-13.423c1.481-.935,2.845,1.413,1.37,2.343a54.888,54.888,0,0,0-21.711,26.2c-4.727,12.023-5.486,25.128-4.671,37.9.493,7.723,1.537,15.4,2.589,23.059a1.406,1.406,0,0,1-.948,1.669,1.365,1.365,0,0,1-1.669-.948Z" transform="translate(-110.337 -237.582)" fill="#f2f2f2"/>
  <path id="Path_26" data-name="Path 26" d="M236.8,568.164a26.014,26.014,0,0,0,22.667,11.7c11.474-.545,21.04-8.553,29.651-16.156l25.47-22.488-16.857-.807c-12.122-.58-24.557-1.121-36.1,2.617s-22.195,12.735-24.306,24.686" transform="translate(-110.337 -237.582)" fill="#e6e6e6"/>
  <path id="Path_27" data-name="Path 27" d="M212.994,600.8c9.2-16.276,19.868-34.365,38.933-40.147a43.446,43.446,0,0,1,16.376-1.691c1.739.15,1.3,2.83-.431,2.68a40.361,40.361,0,0,0-26.133,6.914c-7.369,5.016-13.106,11.988-17.962,19.383-2.974,4.529-5.639,9.251-8.3,13.966-.852,1.507-3.341.419-2.479-1.105Z" transform="translate(-110.337 -237.582)" fill="#f2f2f2"/>
  <path id="Path_28" data-name="Path 28" d="M198.255,617.932a19.7,19.7,0,0,1,12.071-16.5v-9.41h15.782v9.706a19.688,19.688,0,0,1,11.414,16.2l3.711,43.138H194.544Z" transform="translate(-110.337 -237.582)" fill="#f2f2f2"/>
  <path id="Path_29" data-name="Path 29" d="M734.973,411.955l-4.695-1.977-3.221-23.536H684.169l-3.491,23.439-4.2,2.1a1,1,0,0,0,.446,1.89h57.663a1,1,0,0,0,.387-1.917Z" transform="translate(-110.337 -237.582)" fill="#e6e6e6"/>
  <path id="Path_30" data-name="Path 30" d="M811.19,389.574H600.507a4.174,4.174,0,0,1-4.165-4.174V355.691H815.354V385.4a4.174,4.174,0,0,1-4.164,4.174Z" transform="translate(-110.337 -237.582)" fill="#ccc"/>
  <path id="Path_31" data-name="Path 31" d="M815.575,369.732H596.15V242.613a5.037,5.037,0,0,1,5.032-5.032H810.543a5.038,5.038,0,0,1,5.032,5.032Z" transform="translate(-110.337 -237.582)" fill="#3f3d56"/>
  <path id="Path_32" data-name="Path 32" d="M802.469,360.506H609.255a3.883,3.883,0,0,1-3.879-3.879V250.687a3.884,3.884,0,0,1,3.879-3.879H802.469a3.884,3.884,0,0,1,3.879,3.879v105.94a3.883,3.883,0,0,1-3.879,3.879Z" transform="translate(-110.337 -237.582)" fill="#fff"/>
  <path id="Path_33" data-name="Path 33" d="M751.58,397.887a11.616,11.616,0,0,1,17.666,2.272l26.134-4.646,6.7,15.193-37,6.043a11.679,11.679,0,0,1-13.5-18.862Z" transform="translate(-110.337 -237.582)" fill="#ffb6b6"/>
  <path id="Path_34" data-name="Path 34" d="M775.776,417.286l27.246-.34,3.449-.047,55.433-.7s15.053-14.361,28.161-29.147l-1.837-13.288a54.291,54.291,0,0,0-18.2-33.615c-18.773,12.544-29.66,37.374-29.66,37.374l-34.37,8.221-3.438.822-21.356,5.1Z" transform="translate(-110.337 -237.582)" fill="#6c63ff"/>
  <path id="Path_35" data-name="Path 35" d="M915.25,498.962H864.393c0,2.179-55.594,3.948-55.594,3.948a20.31,20.31,0,0,0-3.332,3.158,19.6,19.6,0,0,0-4.58,12.633v3.158A19.746,19.746,0,0,0,820.625,541.6H915.25a19.756,19.756,0,0,0,19.739-19.739V518.7A19.766,19.766,0,0,0,915.25,498.962Z" transform="translate(-110.337 -237.582)" fill="#e4e4e4"/>
  <rect id="Rectangle_2" data-name="Rectangle 2" width="20.528" height="118.49" transform="translate(747.402 303.231)" fill="#e4e4e4"/>
  <path id="Path_36" data-name="Path 36" d="M799.312,658.581c0,2.218,31.107.858,69.48.858s69.48,1.36,69.48-.858-31.107-19.807-69.48-19.807S799.312,656.363,799.312,658.581Z" transform="translate(-110.337 -237.582)" fill="#e4e4e4"/>
  <path id="Path_37" data-name="Path 37" d="M675.186,407.461H659.908l-7.268-58.929h22.548Z" fill="#ffb6b6"/>
  <path id="Path_38" data-name="Path 38" d="M789.419,659.852l-49.262,0v-.623a19.175,19.175,0,0,1,19.173-19.174h30.09Z" transform="translate(-110.337 -237.582)" fill="#2f2e41"/>
  <path id="Path_39" data-name="Path 39" d="M630.031,407.461H614.753l-7.268-58.929h22.548Z" fill="#ffb6b6"/>
  <path id="Path_40" data-name="Path 40" d="M744.264,659.852l-49.262,0v-.623a19.175,19.175,0,0,1,19.173-19.174h30.09Z" transform="translate(-110.337 -237.582)" fill="#2f2e41"/>
  <circle id="Ellipse_4" data-name="Ellipse 4" cx="26.564" cy="26.564" r="26.564" transform="translate(740.323 15.072)" fill="#ffb6b6"/>
  <path id="Path_41" data-name="Path 41" d="M920.217,461.224s8.913,47.131-25,53.132-82.866,10.22-82.866,10.22L790.367,627.143l-29.534-2.637s3.928-123.467,13.588-133.127S845.132,452.8,845.132,452.8Z" transform="translate(-110.337 -237.582)" fill="#2f2e41"/>
  <path id="Path_42" data-name="Path 42" d="M853.983,441.471l-14.832,14.879S732.057,473.6,727.925,498.336c-6.237,37.344-13.6,118.552-13.6,118.552l32.2-2.415,12.626-92.311,51.518-11.719L869.277,478.5Z" transform="translate(-110.337 -237.582)" fill="#2f2e41"/>
  <path id="Path_43" data-name="Path 43" d="M902.785,263.361c-2.622-4.948-5.954-14.808-11.247-16.637a42.076,42.076,0,0,0-9.058-1.93l-9,3.46,4.9-3.808q-1.43-.085-2.858-.139l-6.07,2.335,3.105-2.415c-5.659-.058-11.5.53-15.885,3.975-3.738,2.937-7.442,14.062-8.041,18.778a35.918,35.918,0,0,0,.66,13.531l1.537,1.462a18.867,18.867,0,0,0,1.206-3.839,18.181,18.181,0,0,1,8.7-11.806l.084-.047c2.578-1.451,5.706-1.384,8.663-1.278l14.042.505c3.378.122,7.016.335,9.65,2.454a15.889,15.889,0,0,1,3.858,5.589c1.309,2.641,3.866,12.6,3.866,12.6s1.447-1.881,2.14-.481a48.4,48.4,0,0,0,2.014-11.233,22.009,22.009,0,0,0-2.27-11.079Z" transform="translate(-110.337 -237.582)" fill="#2f2e41"/>
  <path id="Path_44" data-name="Path 44" d="M995.694,290.883a11.616,11.616,0,0,0-10.513,14.378L963.82,321.019l6.409,15.317,29.854-22.676a11.679,11.679,0,0,0-4.389-22.776Z" transform="translate(-110.337 -237.582)" fill="#ffb6b6"/>
  <path id="Path_45" data-name="Path 45" d="M992.256,323.052l-53.551,59.474s-25.609-8.2-45.415-17.086l-8.9-27.328a54.343,54.343,0,0,1-2.6-19.664c27.456-7.306,59.391,19.879,59.391,19.879l40.085-31.4Z" transform="translate(-110.337 -237.582)" fill="#6c63ff"/>
  <path id="Path_46" data-name="Path 46" d="M867.3,465.617c-9.554-3.3-19.433-6.713-30.089-7.994l-.458-.055.126-.443c11.031-38.731,8.278-63.507,2.872-100.723A37.591,37.591,0,0,1,861.3,316.9l.065-.03,30.434-1.934.069,0L914,321.443a15.183,15.183,0,0,1,10.867,14.831c-.24,12.239.269,25.9.807,40.371,1.208,32.456,2.457,66.016-4.63,87.792l-.037.114-.095.074a36.1,36.1,0,0,1-23.081,8.108C887.9,472.732,877.762,469.23,867.3,465.617Z" transform="translate(-110.337 -237.582)" fill="#6c63ff"/>
  <path id="Path_47" data-name="Path 47" d="M1088.248,662.418h-976.5a1.415,1.415,0,1,1,0-2.83h976.5a1.415,1.415,0,0,1,0,2.83Z" transform="translate(-110.337 -237.582)" fill="#ccc"/>
</svg>
