<svg width="300" height="300" viewBox="0 0 300 300" fill="none" xmlns="http://www.w3.org/2000/svg">
<rect width="300" height="300" rx="50" fill="#4F4F8E"/>
<g filter="url(#filter0_di_19_135)">
<path d="M164.279 39.9999H62L113.14 150L164.279 39.9999Z" fill="url(#paint0_linear_19_135)" shape-rendering="crispEdges"/>
<path d="M113.14 260H164.279V205V150L113.14 260Z" fill="url(#paint1_linear_19_135)" shape-rendering="crispEdges"/>
<path d="M62 260H113.14L164.279 150V94.9999V39.9999L113.14 150L62 260Z" fill="url(#paint2_linear_19_135)" shape-rendering="crispEdges"/>
<path d="M164.279 94.9999V150C164.279 150 238 150 238 94.9999C238 39.9999 164.279 39.9999 164.279 39.9999V94.9999Z" fill="url(#paint3_linear_19_135)" shape-rendering="crispEdges"/>
<path d="M164.279 205V260C164.279 260 238 260 238 205C238 150 164.279 150 164.279 150V205Z" fill="url(#paint4_linear_19_135)" shape-rendering="crispEdges"/>
<path d="M62 260L59.2796 258.735L57.2969 263H62V260ZM62 39.9999V36.9999H57.2969L59.2796 41.2647L62 39.9999ZM164.279 36.9999H62V42.9999H164.279V36.9999ZM62 263H113.14V257H62V263ZM113.14 263H164.279V257H113.14V263ZM115.86 261.265L167 151.265L161.559 148.735L110.419 258.735L115.86 261.265ZM64.7204 261.265L115.86 151.265L110.419 148.735L59.2796 258.735L64.7204 261.265ZM115.86 151.265L167 41.2647L161.559 38.7352L110.419 148.735L115.86 151.265ZM115.86 148.735L64.7204 38.7352L59.2796 41.2647L110.419 151.265L115.86 148.735ZM167.279 260V205H161.279V260H167.279ZM167.279 205V150H161.279V205H167.279ZM164.279 260C164.279 263 164.281 263 164.282 263C164.283 263 164.285 263 164.287 263C164.291 263 164.296 263 164.301 263C164.313 263 164.33 263 164.35 263C164.392 262.999 164.451 262.999 164.527 262.998C164.679 262.996 164.899 262.993 165.182 262.986C165.748 262.971 166.568 262.944 167.607 262.888C169.682 262.778 172.633 262.557 176.168 262.118C183.224 261.24 192.685 259.481 202.188 255.936C211.679 252.395 221.374 247.014 228.718 238.796C236.118 230.515 241 219.492 241 205H235C235 218.008 230.667 227.61 224.244 234.798C217.765 242.048 209.031 246.979 200.091 250.314C191.164 253.644 182.195 255.322 175.428 256.163C172.052 256.583 169.243 256.793 167.287 256.897C166.31 256.949 165.546 256.975 165.033 256.987C164.776 256.994 164.582 256.997 164.455 256.998C164.391 256.999 164.344 257 164.315 257C164.3 257 164.29 257 164.284 257C164.281 257 164.279 257 164.278 257C164.278 257 164.278 257 164.278 257C164.278 257 164.279 257 164.279 260ZM241 205C241 190.508 236.118 179.485 228.718 171.204C221.374 162.986 211.679 157.604 202.188 154.064C192.685 150.519 183.224 148.76 176.168 147.882C172.633 147.443 169.682 147.222 167.607 147.112C166.568 147.056 165.748 147.028 165.182 147.014C164.899 147.007 164.679 147.004 164.527 147.002C164.451 147.001 164.392 147 164.35 147C164.33 147 164.313 147 164.301 147C164.296 147 164.291 147 164.287 147C164.285 147 164.283 147 164.282 147C164.281 147 164.279 147 164.279 150C164.279 153 164.278 153 164.278 153C164.278 153 164.278 153 164.278 153C164.279 153 164.281 153 164.284 153C164.29 153 164.3 153 164.315 153C164.344 153 164.391 153.001 164.455 153.001C164.582 153.003 164.776 153.006 165.033 153.012C165.546 153.025 166.31 153.051 167.287 153.103C169.243 153.207 172.052 153.417 175.428 153.836C182.195 154.678 191.164 156.356 200.091 159.686C209.031 163.02 217.765 167.951 224.244 175.202C230.667 182.39 235 191.992 235 205H241ZM167.279 150V94.9999H161.279V150H167.279ZM167.279 94.9999V39.9999H161.279V94.9999H167.279ZM235 94.9999C235 108.008 230.667 117.61 224.244 124.798C217.765 132.048 209.031 136.979 200.091 140.314C191.164 143.644 182.195 145.322 175.428 146.163C172.052 146.583 169.243 146.792 167.287 146.897C166.31 146.949 165.546 146.975 165.033 146.987C164.776 146.994 164.582 146.997 164.455 146.998C164.391 146.999 164.344 147 164.315 147C164.3 147 164.29 147 164.284 147C164.281 147 164.279 147 164.278 147C164.278 147 164.278 147 164.278 147C164.278 147 164.279 147 164.279 150C164.279 153 164.281 153 164.282 153C164.283 153 164.285 153 164.287 153C164.291 153 164.296 153 164.301 153C164.313 153 164.33 153 164.35 153C164.392 152.999 164.451 152.999 164.527 152.998C164.679 152.996 164.899 152.993 165.182 152.986C165.748 152.971 166.568 152.944 167.607 152.888C169.682 152.778 172.633 152.557 176.168 152.118C183.224 151.24 192.685 149.481 202.188 145.936C211.679 142.395 221.374 137.014 228.718 128.796C236.118 120.515 241 109.492 241 94.9999H235ZM241 94.9999C241 80.5077 236.118 69.4848 228.718 61.2041C221.374 52.986 211.679 47.6044 202.188 44.0641C192.685 40.519 183.224 38.7595 176.168 37.8822C172.633 37.4426 169.682 37.2222 167.607 37.1116C166.568 37.0563 165.748 37.0284 165.182 37.0143C164.899 37.0073 164.679 37.0037 164.527 37.0018C164.451 37.0009 164.392 37.0004 164.35 37.0002C164.33 37.0001 164.313 37 164.301 37C164.296 37 164.291 37 164.287 36.9999C164.285 36.9999 164.283 36.9999 164.282 36.9999C164.281 36.9999 164.279 36.9999 164.279 39.9999C164.279 42.9999 164.278 42.9999 164.278 42.9999C164.278 42.9999 164.278 42.9999 164.278 42.9999C164.279 42.9999 164.281 42.9999 164.284 43C164.29 43 164.3 43 164.315 43.0001C164.344 43.0003 164.391 43.0006 164.455 43.0014C164.582 43.0029 164.776 43.0061 165.033 43.0124C165.546 43.0252 166.31 43.051 167.287 43.1031C169.243 43.2074 172.052 43.4166 175.428 43.8364C182.195 44.6778 191.164 46.3558 200.091 49.6857C209.031 53.0205 217.765 57.9514 224.244 65.202C230.667 72.39 235 81.9921 235 94.9999H241Z" fill="white"/>
</g>
<defs>
<filter id="filter0_di_19_135" x="53.2969" y="36.9999" width="191.703" height="251" filterUnits="userSpaceOnUse" color-interpolation-filters="sRGB">
<feFlood flood-opacity="0" result="BackgroundImageFix"/>
<feColorMatrix in="SourceAlpha" type="matrix" values="0 0 0 0 0 0 0 0 0 0 0 0 0 0 0 0 0 0 127 0" result="hardAlpha"/>
<feOffset dy="4"/>
<feGaussianBlur stdDeviation="2"/>
<feComposite in2="hardAlpha" operator="out"/>
<feColorMatrix type="matrix" values="0 0 0 0 0 0 0 0 0 0 0 0 0 0 0 0 0 0 0.25 0"/>
<feBlend mode="normal" in2="BackgroundImageFix" result="effect1_dropShadow_19_135"/>
<feBlend mode="normal" in="SourceGraphic" in2="effect1_dropShadow_19_135" result="shape"/>
<feColorMatrix in="SourceAlpha" type="matrix" values="0 0 0 0 0 0 0 0 0 0 0 0 0 0 0 0 0 0 127 0" result="hardAlpha"/>
<feOffset dy="25"/>
<feGaussianBlur stdDeviation="20"/>
<feComposite in2="hardAlpha" operator="arithmetic" k2="-1" k3="1"/>
<feColorMatrix type="matrix" values="0 0 0 0 0 0 0 0 0 0 0 0 0 0 0 0 0 0 0.5 0"/>
<feBlend mode="normal" in2="shape" result="effect2_innerShadow_19_135"/>
</filter>
<linearGradient id="paint0_linear_19_135" x1="150" y1="46" x2="58.5" y2="179.5" gradientUnits="userSpaceOnUse">
<stop stop-color="#7E7F9A"/>
<stop offset="1" stop-color="#7E7F9A" stop-opacity="0"/>
</linearGradient>
<linearGradient id="paint1_linear_19_135" x1="156" y1="186" x2="99" y2="300" gradientUnits="userSpaceOnUse">
<stop stop-color="#7E7F9A"/>
<stop offset="1" stop-color="#7E7F9A" stop-opacity="0"/>
</linearGradient>
<linearGradient id="paint2_linear_19_135" x1="157" y1="105.5" x2="48.5" y2="273" gradientUnits="userSpaceOnUse">
<stop stop-color="#F88909"/>
<stop offset="1" stop-color="#7E7F9A"/>
</linearGradient>
<linearGradient id="paint3_linear_19_135" x1="208" y1="61.5" x2="166.5" y2="154" gradientUnits="userSpaceOnUse">
<stop stop-color="#7E7F9A"/>
<stop offset="1" stop-color="#7E7F9A" stop-opacity="0"/>
</linearGradient>
<linearGradient id="paint4_linear_19_135" x1="217.5" y1="165" x2="122.5" y2="345" gradientUnits="userSpaceOnUse">
<stop stop-color="#F88909"/>
<stop offset="1" stop-color="#7C7D98"/>
</linearGradient>
</defs>
</svg>
